HIERARCHY
ROOT joint_Root
{
	OFFSET 0.0 0.0 0.0
	CHANNELS 6 Xposition Yposition Zposition Zrotation Xrotation Yrotation 
	JOINT Hips
	{
		OFFSET -0.726466 93.3139 -2.00062
		CHANNELS 6 Xposition Yposition Zposition Zrotation Xrotation Yrotation 
		JOINT Spine
		{
			OFFSET 15.7357 0.0 0.0
			CHANNELS 6 Xposition Yposition Zposition Zrotation Xrotation Yrotation 
			JOINT Chest
			{
				OFFSET 8.98455 -0.406207 0.0
				CHANNELS 6 Xposition Yposition Zposition Zrotation Xrotation Yrotation 
				JOINT Neck
				{
					OFFSET 16.3773 0.0 0.0
					CHANNELS 6 Xposition Yposition Zposition Zrotation Xrotation Yrotation 
					JOINT Head
					{
						OFFSET 6.45672 0.0 0.0
						CHANNELS 6 Xposition Yposition Zposition Zrotation Xrotation Yrotation 
						End Site
						{
							OFFSET 0.0 0.0 0.0
						}
					}
				}
				JOINT Shoulder_L
				{
					OFFSET 12.9942 -0.242716 4.98039
					CHANNELS 6 Xposition Yposition Zposition Zrotation Xrotation Yrotation 
					JOINT UpperArm_L
					{
						OFFSET 5.34809 0.0 0.0
						CHANNELS 6 Xposition Yposition Zposition Zrotation Xrotation Yrotation 
						JOINT LowerArm_L
						{
							OFFSET 24.3286 1.87007e-05 0.0
							CHANNELS 6 Xposition Yposition Zposition Zrotation Xrotation Yrotation 
							JOINT Hand_L
							{
								OFFSET 22.2916 0.0 0.0
								CHANNELS 6 Xposition Yposition Zposition Zrotation Xrotation Yrotation 
								End Site
								{
									OFFSET 0.0 0.0 0.0
								}
							}
						}
					}
				}
				JOINT Shoulder_R
				{
					OFFSET 12.9945 -0.242716 -4.98039
					CHANNELS 6 Xposition Yposition Zposition Zrotation Xrotation Yrotation 
					JOINT UpperArm_R
					{
						OFFSET -5.34813 0.0 0.0
						CHANNELS 6 Xposition Yposition Zposition Zrotation Xrotation Yrotation 
						JOINT LowerArm_R
						{
							OFFSET -24.3289 0.000322201 0.0
							CHANNELS 6 Xposition Yposition Zposition Zrotation Xrotation Yrotation 
							JOINT Hand_R
							{
								OFFSET -22.2915 -0.000108084 0.0
								CHANNELS 6 Xposition Yposition Zposition Zrotation Xrotation Yrotation 
								End Site
								{
									OFFSET 0.0 0.0 0.0
								}
							}
						}
					}
				}
			}
		}
		JOINT UpperLeg_L
		{
			OFFSET -2.19248 -6.46944 0.0
			CHANNELS 6 Xposition Yposition Zposition Zrotation Xrotation Yrotation 
			JOINT LowerLeg_L
			{
				OFFSET 39.0811 0.0 -1.23785e-05
				CHANNELS 6 Xposition Yposition Zposition Zrotation Xrotation Yrotation 
				JOINT Foot_L
				{
					OFFSET 40.9854 0.0 -1.26872e-05
					CHANNELS 6 Xposition Yposition Zposition Zrotation Xrotation Yrotation 
					JOINT Toes_L
					{
						OFFSET 11.7543 0.0 0.0
						CHANNELS 6 Xposition Yposition Zposition Zrotation Xrotation Yrotation 
						End Site
						{
							OFFSET 0.0 0.0 0.0
						}
					}
				}
			}
		}
		JOINT UpperLeg_R
		{
			OFFSET -2.19251 6.46944 0.0
			CHANNELS 6 Xposition Yposition Zposition Zrotation Xrotation Yrotation 
			JOINT LowerLeg_R
			{
				OFFSET -39.0811 -0.00228153 -0.0401928
				CHANNELS 6 Xposition Yposition Zposition Zrotation Xrotation Yrotation 
				JOINT Foot_R
				{
					OFFSET -40.9854 0.0 0.0
					CHANNELS 6 Xposition Yposition Zposition Zrotation Xrotation Yrotation 
					JOINT Toes_R
					{
						OFFSET -11.7543 0.0 0.0
						CHANNELS 6 Xposition Yposition Zposition Zrotation Xrotation Yrotation 
						End Site
						{
							OFFSET 0.0 0.0 0.0
						}
					}
				}
			}
		}
	}
}
MOTION
Frames:	9
Frame Time:	0.0333333
0.000000 0.000000 0.000000 0.000000 0.000000 -0.000000 -1.414370 92.010000 -2.689670 87.525700 -3.057250 6.488410 15.735700 0.000005 -0.000001 89.080900 85.873900 -89.447200 8.984550 -0.406207 -0.000000 0.484763 -0.109062 -0.731489 16.377300 -0.000001 -0.000001 1.023360 -0.921945 1.293300 6.456720 -0.000001 -0.000000 -1.244830 0.343704 -7.534270 12.994200 -0.242716 4.980390 -88.974300 -3.184700 -72.137600 5.348090 -0.000007 -0.000001 40.957900 76.291700 -87.140200 24.328600 0.000019 0.000005 7.245010 0.231824 -88.177200 22.291600 -0.000001 0.000005 46.189700 5.565170 -32.797300 12.994500 -0.242716 -4.980390 90.950600 -2.424890 -68.585800 -5.348130 -0.000001 -0.000004 -50.714100 -47.305100 -94.232600 -24.328900 0.000322 -0.000009 6.719140 3.800980 -60.639100 -22.291500 -0.000108 -0.000004 20.580700 5.324830 -0.635311 -2.192480 -6.469440 -0.000000 -167.339000 -21.543200 -0.624826 39.081100 -0.000007 -0.000012 -0.167899 0.389239 23.333300 40.985400 -0.000006 -0.000013 -5.835720 1.470570 -63.145100 11.754300 -0.000000 0.000003 -0.000074 -0.000799 -16.608400 -2.192510 6.469440 -0.000001 173.767000 23.254700 -178.934000 -39.081100 -0.002282 -0.040193 -0.032879 0.094917 20.875700 -40.985400 0.000008 0.000006 -2.538050 4.552430 -62.963700 -11.754300 -0.000006 -0.000006 -0.005986 -0.070706 -19.450700
0.000000 0.000000 0.000000 0.000000 0.000000 -0.000000 -1.402840 92.006500 -2.666960 87.539200 -3.074890 6.536640 15.735700 0.000005 -0.000001 89.152100 85.838000 -89.514900 8.984550 -0.406207 -0.000000 0.556875 -0.100333 -0.724603 16.377300 -0.000001 -0.000001 1.113570 -0.926789 1.313710 6.456720 -0.000001 -0.000000 -1.087650 0.312470 -7.559460 12.994200 -0.242716 4.980390 -88.984700 -3.144850 -72.096800 5.348090 -0.000007 -0.000001 40.145300 76.376900 -86.327000 24.328600 0.000019 0.000005 7.299150 0.236990 -88.150500 22.291600 -0.000001 0.000005 45.996500 5.563680 -32.871700 12.994500 -0.242716 -4.980390 90.953500 -2.428160 -68.552900 -5.348130 -0.000001 -0.000004 -50.584100 -47.354000 -94.088800 -24.328900 0.000322 -0.000009 6.732580 3.783290 -60.802200 -22.291500 -0.000108 -0.000004 20.707100 5.321930 -0.551463 -2.192480 -6.469440 -0.000000 -167.337000 -21.568700 -0.563666 39.081100 -0.000007 -0.000012 -0.166990 0.386778 23.352300 40.985400 -0.000006 -0.000013 -5.824670 1.481670 -63.171100 11.754300 -0.000000 0.000003 -0.000078 -0.000828 -16.609500 -2.192510 6.469440 -0.000001 173.725000 23.260700 -178.909000 -39.081100 -0.002282 -0.040193 -0.030701 0.088891 20.943300 -40.985400 0.000008 0.000006 -2.396930 4.570000 -63.015200 -11.754300 -0.000006 -0.000006 -0.006238 -0.072979 -19.543400
0.000000 0.000000 0.000000 0.000000 0.000000 -0.000000 -1.391890 92.012600 -2.666740 87.567000 -3.058630 6.499460 15.735700 0.000005 -0.000001 89.179700 85.829300 -89.550400 8.984550 -0.406207 -0.000000 0.574298 -0.096111 -0.740327 16.377300 -0.000001 -0.000001 1.194040 -0.916675 1.321160 6.456720 -0.000001 -0.000000 -0.957286 0.291713 -7.498520 12.994200 -0.242716 4.980390 -88.982500 -3.145290 -72.063700 5.348090 -0.000007 -0.000001 39.427300 76.422400 -85.678900 24.328600 0.000019 0.000005 7.401970 0.251254 -88.066800 22.291600 -0.000001 0.000005 45.998100 5.561270 -32.991400 12.994500 -0.242716 -4.980390 90.950500 -2.414660 -68.505700 -5.348130 -0.000001 -0.000004 -50.552200 -47.418200 -93.996800 -24.328900 0.000322 -0.000009 6.763920 3.768890 -61.009000 -22.291500 -0.000108 -0.000004 20.559100 5.322840 -0.577601 -2.192480 -6.469440 -0.000000 -167.383000 -21.573800 -0.578793 39.081100 -0.000007 -0.000012 -0.168548 0.391527 23.291500 40.985400 -0.000006 -0.000013 -5.822710 1.476830 -63.138800 11.754300 -0.000000 0.000003 -0.000073 -0.000785 -16.607900 -2.192510 6.469440 -0.000001 173.712000 23.214100 -178.923000 -39.081100 -0.002282 -0.040193 -0.032070 0.092712 20.892500 -40.985400 0.000008 0.000006 -2.486280 4.511490 -62.986300 -11.754300 -0.000006 -0.000006 -0.005960 -0.070467 -19.441000
0.000000 0.000000 0.000000 0.000000 0.000000 -0.000000 -1.392080 91.998700 -2.659880 87.544500 -3.006020 6.508810 15.735700 0.000005 -0.000001 89.110200 85.804200 -89.477200 8.984550 -0.406207 -0.000000 0.624401 -0.107414 -0.732908 16.377300 -0.000001 -0.000001 1.281110 -0.893468 1.380060 6.456720 -0.000001 -0.000000 -0.842971 0.298787 -7.455240 12.994200 -0.242716 4.980390 -88.985200 -3.127730 -72.013500 5.348090 -0.000007 -0.000001 39.153400 76.393300 -85.445600 24.328600 0.000019 0.000005 7.575900 0.269525 -87.974400 22.291600 -0.000001 0.000005 46.067400 5.559450 -33.080900 12.994500 -0.242716 -4.980390 90.940800 -2.389000 -68.497600 -5.348130 -0.000001 -0.000004 -50.519200 -47.513400 -93.914700 -24.328900 0.000322 -0.000009 6.761790 3.739870 -61.188400 -22.291500 -0.000108 -0.000004 20.657100 5.323050 -0.583942 -2.192480 -6.469440 -0.000000 -167.365000 -21.554400 -0.640745 39.081100 -0.000007 -0.000012 -0.168513 0.389157 23.413800 40.985400 -0.000006 -0.000013 -5.812500 1.499910 -63.195900 11.754300 -0.000000 0.000003 -0.000079 -0.000838 -16.609800 -2.192510 6.469440 -0.000001 173.704000 23.283200 -178.929000 -39.081100 -0.002282 -0.040193 -0.033925 0.097247 20.956300 -40.985400 0.000008 0.000006 -2.533760 4.539170 -63.015200 -11.754300 -0.000006 -0.000006 -0.006105 -0.071784 -19.494700
0.000000 0.000000 0.000000 0.000000 0.000000 -0.000000 -1.391580 92.011700 -2.665880 87.566300 -2.961190 6.484660 15.735700 0.000005 -0.000001 89.224700 85.793500 -89.605200 8.984550 -0.406207 -0.000000 0.645946 -0.090164 -0.759913 16.377300 -0.000001 -0.000001 1.376300 -0.900382 1.433110 6.456720 -0.000001 -0.000000 -0.765350 0.283746 -7.383280 12.994200 -0.242716 4.980390 -88.989500 -3.111460 -71.996900 5.348090 -0.000007 -0.000001 39.124300 76.389100 -85.426300 24.328600 0.000019 0.000005 7.580230 0.274760 -87.936300 22.291600 -0.000001 0.000005 46.169000 5.557530 -33.174600 12.994500 -0.242716 -4.980390 90.934600 -2.365630 -68.435600 -5.348130 -0.000001 -0.000004 -50.677200 -47.537800 -93.969900 -24.328900 0.000322 -0.000009 6.700800 3.678680 -61.365500 -22.291500 -0.000108 -0.000004 20.376200 5.320890 -0.521432 -2.192480 -6.469440 -0.000000 -167.388000 -21.586900 -0.627378 39.081100 -0.000007 -0.000012 -0.168438 0.391027 23.304600 40.985400 -0.000006 -0.000013 -5.804270 1.557990 -63.123300 11.754300 -0.000000 0.000003 -0.000078 -0.000829 -16.609500 -2.192510 6.469440 -0.000001 173.717000 23.282400 -178.942000 -39.081100 -0.002282 -0.040193 -0.029325 0.085366 20.927400 -40.985400 0.000008 0.000006 -2.384090 4.482970 -63.023200 -11.754300 -0.000006 -0.000006 -0.006081 -0.071567 -19.485800
0.000000 0.000000 0.000000 0.000000 0.000000 -0.000000 -1.393720 92.007800 -2.667350 87.542600 -2.918580 6.472240 15.735700 0.000005 -0.000001 89.334700 85.766000 -89.717300 8.984550 -0.406207 -0.000000 0.701226 -0.074718 -0.764265 16.377300 -0.000001 -0.000001 1.454760 -0.907890 1.492900 6.456720 -0.000001 -0.000000 -0.705897 0.264455 -7.282050 12.994200 -0.242716 4.980390 -88.982700 -3.133180 -72.001800 5.348090 -0.000007 -0.000001 38.612100 76.411700 -84.949100 24.328600 0.000019 0.000005 7.610770 0.278048 -87.920100 22.291600 -0.000001 0.000005 46.068000 5.555850 -33.255700 12.994500 -0.242716 -4.980390 90.923900 -2.332550 -68.383800 -5.348130 -0.000001 -0.000004 -50.750700 -47.573100 -93.995300 -24.328900 0.000322 -0.000009 6.614460 3.612120 -61.489400 -22.291500 -0.000108 -0.000004 20.325400 5.319880 -0.492373 -2.192480 -6.469440 -0.000000 -167.387000 -21.528500 -0.681850 39.081100 -0.000007 -0.000012 -0.167106 0.386925 23.358800 40.985400 -0.000006 -0.000013 -5.799430 1.554370 -63.150600 11.754300 -0.000000 0.000003 -0.000077 -0.000822 -16.609200 -2.192510 6.469440 -0.000001 173.750000 23.281500 -178.958000 -39.081100 -0.002282 -0.040193 -0.031297 0.090516 20.928900 -40.985400 0.000008 0.000006 -2.438600 4.404360 -63.017300 -11.754300 -0.000006 -0.000006 -0.005990 -0.070745 -19.452300
0.000000 0.000000 0.000000 0.000000 0.000000 -0.000000 -1.390280 92.013800 -2.678510 87.547900 -2.879720 6.427400 15.735700 0.000005 -0.000001 89.391500 85.754300 -89.777300 8.984550 -0.406207 -0.000000 0.724773 -0.066449 -0.770515 16.377300 -0.000001 -0.000001 1.517280 -0.920887 1.539760 6.456720 -0.000001 -0.000000 -0.638588 0.229724 -7.277270 12.994200 -0.242716 4.980390 -88.989900 -3.105600 -71.973400 5.348090 -0.000007 -0.000001 38.059900 76.465500 -84.393200 24.328600 0.000019 0.000005 7.650510 0.280731 -87.911100 22.291600 -0.000001 0.000005 46.022800 5.553770 -33.355800 12.994500 -0.242716 -4.980390 90.916400 -2.308320 -68.340000 -5.348130 -0.000001 -0.000004 -50.743300 -47.567800 -94.014700 -24.328900 0.000322 -0.000009 6.641650 3.616790 -61.557800 -22.291500 -0.000108 -0.000004 20.370500 5.320570 -0.512094 -2.192480 -6.469440 -0.000000 -167.419000 -21.506600 -0.728848 39.081100 -0.000007 -0.000012 -0.167876 0.389461 23.318500 40.985400 -0.000006 -0.000013 -5.792520 1.574390 -63.120400 11.754300 -0.000000 0.000003 -0.000079 -0.000841 -16.610000 -2.192510 6.469440 -0.000001 173.767000 23.344900 -179.000000 -39.081100 -0.002282 -0.040193 -0.028459 0.083157 20.914200 -40.985400 0.000008 0.000006 -2.377130 4.409690 -63.011200 -11.754300 -0.000006 -0.000006 -0.006039 -0.071188 -19.470400
0.000000 0.000000 0.000000 0.000000 0.000000 -0.000000 -1.384390 92.015200 -2.682960 87.564900 -2.880070 6.397860 15.735700 0.000005 -0.000001 89.618200 85.739600 -90.003800 8.984550 -0.406207 -0.000000 0.754663 -0.033168 -0.770387 16.377300 -0.000001 -0.000001 1.633040 -0.928368 1.605340 6.456720 -0.000001 -0.000000 -0.599259 0.186638 -7.329400 12.994200 -0.242716 4.980390 -89.012200 -3.021840 -71.888700 5.348090 -0.000007 -0.000001 37.663800 76.465200 -83.983200 24.328600 0.000019 0.000005 7.827840 0.298517 -87.829800 22.291600 -0.000001 0.000005 46.058100 5.552700 -33.407000 12.994500 -0.242716 -4.980390 90.908400 -2.280420 -68.272300 -5.348130 -0.000001 -0.000004 -50.637500 -47.539300 -93.959800 -24.328900 0.000322 -0.000009 6.618610 3.582820 -61.699700 -22.291500 -0.000108 -0.000004 20.370600 5.320430 -0.508164 -2.192480 -6.469440 -0.000000 -167.462000 -21.533400 -0.771032 39.081100 -0.000007 -0.000012 -0.166878 0.387165 23.317500 40.985400 -0.000006 -0.000013 -5.784170 1.538680 -63.111400 11.754300 -0.000000 0.000003 -0.000078 -0.000827 -16.609400 -2.192510 6.469440 -0.000001 173.752000 23.371200 -179.039000 -39.081100 -0.002282 -0.040193 -0.028484 0.083197 20.920400 -40.985400 0.000008 0.000006 -2.363130 4.446060 -63.007900 -11.754300 -0.000006 -0.000006 -0.006023 -0.071041 -19.464400
0.000000 0.000000 0.000000 0.000000 0.000000 -0.000000 -1.376670 92.019000 -2.697860 87.544600 -2.875470 6.318200 15.735700 0.000005 -0.000001 89.837500 85.738600 -90.210700 8.984550 -0.406207 -0.000000 0.756897 -0.001342 -0.745878 16.377300 -0.000001 -0.000001 1.691690 -0.959811 1.704070 6.456720 -0.000001 -0.000000 -0.509964 0.104703 -7.399970 12.994200 -0.242716 4.980390 -89.050100 -2.897480 -71.840000 5.348090 -0.000007 -0.000001 37.047800 76.512800 -83.333100 24.328600 0.000019 0.000005 7.897750 0.311172 -87.758100 22.291600 -0.000001 0.000005 46.140400 5.549730 -33.547600 12.994500 -0.242716 -4.980390 90.903700 -2.259100 -68.190600 -5.348130 -0.000001 -0.000004 -50.452400 -47.479800 -93.763200 -24.328900 0.000322 -0.000009 6.614100 3.539380 -61.973700 -22.291500 -0.000108 -0.000004 20.256100 5.319520 -0.482024 -2.192480 -6.469440 -0.000000 -167.483000 -21.519500 -0.864386 39.081100 -0.000007 -0.000012 -0.166132 0.385470 23.315500 40.985400 -0.000006 -0.000013 -5.780350 1.534010 -63.106800 11.754300 -0.000000 0.000003 -0.000071 -0.000763 -16.607000 -2.192510 6.469440 -0.000001 173.821000 23.302300 -179.118000 -39.081100 -0.002282 -0.040193 -0.029028 0.084816 20.876400 -40.985400 0.000008 0.000006 -2.373960 4.390940 -62.981300 -11.754300 -0.000006 -0.000006 -0.005954 -0.070418 -19.439000
